<svg width="32" height="28" viewBox="0 0 32 28" fill="none" xmlns="http://www.w3.org/2000/svg">
<path d="M29.7943 19.1072V9.21899L27.9316 9.8399V19.1072C26.7734 19.4971 25.9364 20.5924 25.9364 21.8806V26.8685C25.9364 27.3826 26.3528 27.7999 26.8678 27.7999H30.8581C31.3722 27.7999 31.7895 27.3826 31.7895 26.8685V21.8806C31.7895 20.5924 30.9525 19.4963 29.7943 19.1072Z" fill="$cinza-claro"/>
<path d="M15.0128 13.5571L5.98645 10.5486V16.8918C5.98645 17.1385 6.08414 17.3761 6.25882 17.5508C8.83352 20.1246 12.256 21.542 15.8962 21.542C19.5363 21.542 22.9588 20.1246 25.5326 17.5508C25.7073 17.3761 25.805 17.1393 25.805 16.8918V10.5486L16.7787 13.5571C16.1627 13.7632 15.5418 13.7334 15.0128 13.5571Z" fill="$cinza-claro"/>
<path d="M15.8953 11.8384C15.9946 11.8384 16.0939 11.8219 16.19 11.7904L31.1539 6.80247C31.5339 6.6758 31.7905 6.31981 31.7905 5.91912C31.7905 5.51843 31.5339 5.16244 31.1539 5.03578L16.19 0.04781C15.9987 -0.0159367 15.7918 -0.0159367 15.6005 0.04781L0.636638 5.03578C0.256642 5.16161 0 5.51843 0 5.91912C0 6.31981 0.256642 6.6758 0.636638 6.80247L15.6005 11.7904C15.6966 11.8219 15.7959 11.8384 15.8953 11.8384Z" fill="$cinza-claro"/>
</svg>
