<svg width="38" height="24" viewBox="0 0 38 24" fill="none" xmlns="http://www.w3.org/2000/svg">
<path d="M12.9088 24H1.09125C0.490647 24 0 23.5253 0 22.9442V14.0558C0 13.4747 0.490647 13 1.09125 13H12.9088C13.5094 13 14 13.4747 14 14.0558V22.9442C14 23.5253 13.5178 24 12.9088 24Z" fill="#0D0D0D"/>
<path d="M20.9087 11H9.09123C8.49063 11 8 10.5253 8 9.9442V1.0558C8 0.474702 8.49063 0 9.09123 0H20.9087C21.5094 0 22 0.474702 22 1.0558V9.9442C22 10.5335 21.5094 11 20.9087 11Z" fill="#0D0D0D"/>
<path d="M36.9087 11H25.0912C24.4906 11 24 10.5253 24 9.9442V1.0558C24 0.474702 24.4906 0 25.0912 0H36.9087C37.5094 0 38 0.474702 38 1.0558V9.9442C37.9915 10.5335 37.5094 11 36.9087 11Z" fill="#0D0D0D"/>
<path d="M28.9087 24H17.0912C16.4906 24 16 23.5253 16 22.9442V14.0558C16 13.4747 16.4906 13 17.0912 13H28.9087C29.5094 13 30 13.4747 30 14.0558V22.9442C30 23.5253 29.5094 24 28.9087 24Z" fill="#0D0D0D"/>
</svg>
