<svg width="19" height="19" viewBox="0 0 19 19" fill="none" xmlns="http://www.w3.org/2000/svg">
<path d="M12.589 0H5.72228C2.56251 0 0 2.64281 0 5.90159V12.9835C0 16.2423 2.56251 18.8851 5.72228 18.8851H12.589C15.7488 18.8851 18.3113 16.2423 18.3113 12.9835V5.90159C18.3113 2.64281 15.7488 0 12.589 0ZM16.5946 12.9835C16.5946 15.2615 14.7978 17.1146 12.589 17.1146H5.72228C3.51348 17.1146 1.71668 15.2615 1.71668 12.9835V5.90159C1.71668 3.62358 3.51348 1.77048 5.72228 1.77048H12.589C14.7978 1.77048 16.5946 3.62358 16.5946 5.90159V12.9835Z" fill="black"/>
<path d="M9.15558 4.72119C6.62741 4.72119 4.57776 6.83507 4.57776 9.44247C4.57776 12.0499 6.62741 14.1637 9.15558 14.1637C11.6838 14.1637 13.7334 12.0499 13.7334 9.44247C13.7334 6.83507 11.6838 4.72119 9.15558 4.72119ZM9.15558 12.3933C7.57838 12.3933 6.29444 11.0691 6.29444 9.44247C6.29444 7.81473 7.57838 6.49167 9.15558 6.49167C10.7328 6.49167 12.0167 7.81473 12.0167 9.44247C12.0167 11.0691 10.7328 12.3933 9.15558 12.3933Z" fill="black"/>
<path d="M14.1913 4.72124C14.4441 4.72124 14.6491 4.50986 14.6491 4.24911C14.6491 3.98836 14.4441 3.77698 14.1913 3.77698C13.9385 3.77698 13.7335 3.98836 13.7335 4.24911C13.7335 4.50986 13.9385 4.72124 14.1913 4.72124Z" fill="black"/>
</svg>
