<svg width="126" height="144" viewBox="0 0 126 144" fill="none" xmlns="http://www.w3.org/2000/svg">
<path d="M126 113.923H0V144H126V113.923Z" fill="black"/>
<path d="M10.0185 124.438H8.19336V133.485H10.0185V124.438Z" fill="white"/>
<path fill-rule="evenodd" clip-rule="evenodd" d="M11.8662 124.438H14.107L17.5851 131.212H17.6046V124.438H19.3452V133.485H17.1272L13.6491 126.73H13.6264V133.485H11.8662V124.438Z" fill="white"/>
<path fill-rule="evenodd" clip-rule="evenodd" d="M27.974 133.352C27.3018 133.527 26.5841 133.634 25.9086 133.634C22.9729 133.634 20.9302 132.185 20.9302 129.133C20.9302 126.038 22.8202 124.286 25.9086 124.286C26.4964 124.286 27.2985 124.415 27.9513 124.674L27.8214 126.19C27.1492 125.802 26.5159 125.715 25.8664 125.715C23.9958 125.715 22.8235 127.144 22.8235 129.003C22.8235 130.843 23.9763 132.227 25.9086 132.227C26.6263 132.227 27.4739 132.053 27.8863 131.839L27.974 133.352Z" fill="white"/>
<path fill-rule="evenodd" clip-rule="evenodd" d="M33.3193 124.286C36.1674 124.286 37.7749 126.213 37.7749 128.939C37.7749 131.687 36.1869 133.634 33.3193 133.634C30.4063 133.634 28.8638 131.707 28.8638 128.939C28.8638 126.168 30.4291 124.286 33.3193 124.286ZM33.3193 132.227C35.1899 132.227 35.8621 130.581 35.8621 128.939C35.8621 127.358 35.1217 125.715 33.3193 125.715C31.5137 125.715 30.7766 127.361 30.7766 128.939C30.7766 130.585 31.452 132.227 33.3193 132.227Z" fill="white"/>
<path fill-rule="evenodd" clip-rule="evenodd" d="M39.2754 124.438H41.2531C43.2081 124.438 45.5366 124.373 45.5366 126.905C45.5366 127.966 44.8189 128.832 43.666 129.003V129.026C44.1434 129.068 44.4259 129.547 44.6208 129.957L46.0757 133.485H44.0557L42.9483 130.672C42.6885 130.003 42.4482 129.741 41.6883 129.741H41.1005V133.485H39.2754V124.438ZM41.1005 128.312H41.7078C42.5976 128.312 43.6206 128.182 43.6206 127.057C43.6206 125.974 42.6203 125.867 41.7078 125.867H41.1005V128.312Z" fill="white"/>
<path fill-rule="evenodd" clip-rule="evenodd" d="M47.2314 124.438H49.5339C51.5116 124.438 53.3173 125.023 53.3173 127.186C53.3173 129.285 51.7747 130.064 49.8165 130.064H49.0565V133.482H47.2314V124.438ZM49.0565 128.635H49.6866C50.5991 128.635 51.424 128.331 51.424 127.293C51.424 126.233 50.6413 125.864 49.6866 125.864H49.0565V128.635Z" fill="white"/>
<path fill-rule="evenodd" clip-rule="evenodd" d="M58.6401 124.286C61.4882 124.286 63.073 126.213 63.073 128.939C63.073 131.687 61.5077 133.634 58.6401 133.634C55.7271 133.634 54.1846 131.707 54.1846 128.939C54.1846 126.168 55.7499 124.286 58.6401 124.286ZM58.6401 132.227C60.488 132.227 61.1829 130.581 61.1829 128.939C61.1829 127.358 60.4425 125.715 58.6401 125.715C56.8345 125.715 56.0746 127.361 56.0746 128.939C56.0779 130.585 56.7728 132.227 58.6401 132.227Z" fill="white"/>
<path fill-rule="evenodd" clip-rule="evenodd" d="M64.596 124.438H66.5737C68.5093 124.438 70.8345 124.373 70.8345 126.905C70.8345 127.966 70.1395 128.832 68.9639 129.003V129.026C69.464 129.068 69.7466 129.547 69.9414 129.957L71.3963 133.485H69.3536L68.2657 130.672C68.0059 130.003 67.7656 129.741 67.0057 129.741H66.4179V133.485H64.5928V124.438H64.596ZM66.4244 128.312H67.0122C67.9247 128.312 68.9477 128.182 68.9477 127.057C68.9477 125.974 67.9247 125.867 67.0122 125.867H66.4244V128.312Z" fill="white"/>
<path fill-rule="evenodd" clip-rule="evenodd" d="M75.313 124.438H77.3557L80.9215 133.485H78.921L78.1384 131.429H74.4427L73.6601 133.485H71.77L75.313 124.438ZM76.3133 126.255H76.2905L74.9656 129.999H77.6155L76.3133 126.255Z" fill="white"/>
<path fill-rule="evenodd" clip-rule="evenodd" d="M82.0938 124.438H84.5943C87.3774 124.438 89.8326 125.389 89.8326 128.962C89.8326 132.554 87.3774 133.485 84.5943 133.485H82.0938V124.438ZM83.9189 132.056H84.9418C86.4649 132.056 87.9425 130.931 87.9425 128.962C87.9425 126.992 86.4649 125.867 84.9418 125.867H83.9189V132.056Z" fill="white"/>
<path fill-rule="evenodd" clip-rule="evenodd" d="M95.5059 124.286C98.3539 124.286 99.9615 126.213 99.9615 128.939C99.9615 131.687 98.3734 133.634 95.5059 133.634C92.5929 133.634 91.0503 131.707 91.0503 128.939C91.0503 126.168 92.6156 124.286 95.5059 124.286ZM95.5059 132.227C97.3764 132.227 98.0487 130.581 98.0487 128.939C98.0714 127.358 97.3082 125.715 95.5059 125.715C93.7035 125.715 92.9631 127.361 92.9631 128.939C92.9631 130.585 93.658 132.227 95.5059 132.227Z" fill="white"/>
<path fill-rule="evenodd" clip-rule="evenodd" d="M101.462 124.438H103.44C105.395 124.438 107.723 124.373 107.723 126.905C107.723 127.966 107.005 128.832 105.853 129.003V129.026C106.33 129.068 106.635 129.547 106.807 129.957L108.262 133.485H106.242L105.135 130.672C104.875 130.003 104.657 129.741 103.875 129.741H103.287V133.485H101.462V124.438ZM103.287 128.312H103.894C104.784 128.312 105.807 128.182 105.807 127.057C105.807 125.974 104.807 125.867 103.894 125.867H103.287V128.312Z" fill="white"/>
<path fill-rule="evenodd" clip-rule="evenodd" d="M112.175 124.438H114.24L117.806 133.485H115.786L115.004 131.429H111.331L110.525 133.485H108.635L112.175 124.438ZM113.175 126.255H113.153L111.847 129.999H114.5L113.175 126.255Z" fill="white"/>
<path d="M126 0H0V108.636H126V0Z" fill="#8A1002"/>
<path fill-rule="evenodd" clip-rule="evenodd" d="M102.722 58.5278C101.569 56.7753 100.156 55.0002 98.5063 53.225C95.8759 50.3893 92.6381 47.5342 88.7898 44.6565C84.9643 41.7788 82.3338 39.3763 80.8984 37.4719C79.463 35.5674 78.7453 33.5109 78.7453 31.2831C78.7453 28.7934 79.7682 26.7175 81.8109 25.0491C83.8309 23.4033 86.3769 22.582 89.4198 22.582C92.3556 22.582 95.0478 23.1866 97.5256 24.3992C99.9807 25.6311 102.439 27.5809 104.894 30.284V12.7589C102.959 11.527 100.591 10.5505 97.7205 9.85852C96.8306 9.64188 95.9148 9.47051 95.0023 9.31854C90.7546 8.8885 86.4776 8.8885 82.2299 9.31531L82.2006 9.31854C76.5727 10.2498 71.7242 12.455 67.6388 15.9826C62.0953 20.7648 59.3155 26.7369 59.3155 33.9216C59.3155 38.2058 60.5333 42.2541 62.9884 46.1277C64.5115 48.4881 66.5541 50.8453 69.0742 53.225C70.6622 54.7189 72.4646 56.1901 74.4423 57.6839C79.5734 61.5155 83.071 64.6519 84.9415 67.119C86.8543 69.6281 87.8091 72.2698 87.8091 75.0409C87.8091 78.048 86.7212 80.5377 84.5486 82.5295C82.3533 84.5406 79.6156 85.5365 76.2902 85.5365C72.942 85.5365 69.8569 84.7993 67.0543 83.2861C64.3588 81.8569 61.7089 79.5871 59.1206 76.5121V95.4922C62.8812 96.9634 66.119 97.9593 68.8794 98.4993C71.2923 98.9552 74.1403 99.2139 77.4203 99.2785H80.2878C87.8513 99.0619 94.1547 96.4881 99.2403 91.6186C104.043 87.0077 106.674 81.3816 107.174 74.7175V70.388C106.807 66.3624 105.329 62.4015 102.722 58.5278Z" fill="white"/>
<path fill-rule="evenodd" clip-rule="evenodd" d="M62.6704 99.6441H82.9056L82.1392 98.6126C81.0513 97.1446 80.0024 95.5053 78.9924 93.6461C77.9857 91.7901 76.7971 89.2745 75.4753 86.1704L56.3443 42.5323V42.529C55.3278 40.2883 54.4412 38.1801 53.7106 36.2077C53.3436 35.2183 53.0611 34.397 52.8662 33.7471C52.6713 33.1004 52.5674 32.6154 52.5544 32.3664L52.5155 31.7585H40.1003L40.045 32.3438C40.0223 32.6057 39.9119 33.0939 39.717 33.7439C39.5222 34.3938 39.2429 35.2183 38.8889 36.2045C38.1323 38.1833 37.2684 40.2915 36.2552 42.5258L36.252 42.5323L17.0982 86.164L17.0949 86.1672C15.5329 89.7983 14.2956 92.5629 13.3505 94.4415C12.7043 95.7057 12.1262 96.7469 11.5839 97.5811L11.48 97.7428V99.6408H28.3378L28.2761 98.9359C28.2079 98.1729 28.1754 97.4486 28.1754 96.7598C28.1754 95.7284 28.2501 94.7842 28.3995 93.9306C28.6495 92.4756 29.1334 90.875 29.8576 89.184L33.2383 80.9646H57.4225L60.6732 89.1678V89.171C61.576 91.4183 62.1736 93.2904 62.4886 94.7551C62.6932 95.7607 62.7938 96.7405 62.7938 97.704C62.7938 98.1179 62.7743 98.5285 62.7386 98.9359L62.6704 99.6441ZM52.9474 69.2435H38.2037L39.8112 65.3763L45.7607 51.0685L51.4081 65.3634L52.9474 69.2435Z" fill="#8A1002"/>
<path fill-rule="evenodd" clip-rule="evenodd" d="M81.6161 98.9973C80.5087 97.5035 79.4435 95.8383 78.4205 93.9564C77.3976 92.0746 76.2025 89.5428 74.8775 86.4258L55.7497 42.7974C54.7267 40.5469 53.8369 38.4258 53.0965 36.434C52.3561 34.4423 51.9436 33.1004 51.9014 32.4084H40.6845C40.6196 33.1004 40.2072 34.4423 39.4895 36.434C38.7295 38.4258 37.8592 40.5469 36.8362 42.7974L17.6922 86.4226C16.1269 90.0569 14.8896 92.828 13.9316 94.7325C13.2788 96.0097 12.691 97.0702 12.126 97.9368V98.9973H27.6231C27.4477 97.0508 27.4932 95.3177 27.753 93.8239C28.0128 92.3074 28.5129 90.6648 29.2533 88.9317L32.7996 80.3211H57.8606L61.2737 88.9349C62.1863 91.208 62.7936 93.1125 63.1215 94.6257C63.4268 96.1196 63.5145 97.5682 63.3814 98.9973H81.6161ZM37.2324 69.8902L39.2102 65.1306L45.7539 49.3968H45.7961L52.0118 65.1306L53.9019 69.8902H37.2324Z" fill="white"/>
</svg>
