<svg width="29" height="30" viewBox="0 0 29 30" fill="none" xmlns="http://www.w3.org/2000/svg">
<path d="M11.4236 22.6666C9.48566 22.6666 7.91418 24.2373 7.91418 26.176C7.91418 28.1139 9.48496 29.6854 11.4236 29.6854C13.3623 29.6854 14.933 28.1146 14.933 26.176C14.9323 24.2373 13.3616 22.6666 11.4236 22.6666Z" fill="white"/>
<path d="M21.6622 22.6666C19.7242 22.6666 18.1528 24.2373 18.1528 26.176C18.1528 28.1139 19.7236 29.6854 21.6622 29.6854C23.6001 29.6854 25.1716 28.1146 25.1716 26.176C25.1716 24.2373 23.6001 22.6666 21.6622 22.6666Z" fill="white"/>
<path d="M27.6432 19.0858H9.34564L8.98756 17.0087H24.0267C24.4694 17.0101 24.8674 16.7401 25.0296 16.3282L28.6104 7.30498C28.8279 6.75318 28.5565 6.12935 28.0047 5.91184C27.8782 5.86219 27.7439 5.83631 27.6075 5.83701H7.12585L6.26633 0.895285C6.17821 0.372858 5.72222 -0.00689864 5.1921 9.5032e-05H1.07423C0.481164 9.5032e-05 0 0.481259 0 1.07432C0 1.66739 0.481164 2.14855 1.07423 2.14855H4.29691L7.37622 20.3391C7.46434 20.8615 7.92033 21.242 8.45045 21.2343H27.6432C28.2362 21.2343 28.7174 20.7531 28.7174 20.16C28.7174 19.5663 28.2369 19.0858 27.6432 19.0858Z" fill="white"/>
</svg>
