<svg width="19" height="29" viewBox="0 0 19 29" fill="none" xmlns="http://www.w3.org/2000/svg">
<path d="M9.49962 0C4.26139 0 0 4.52176 0 10.08C0 17.0667 9.50952 29 9.50952 29C9.50952 29 19 16.7225 19 10.08C19 4.52176 14.7386 0 9.49962 0ZM12.3662 13.0321C11.5759 13.8707 10.5381 14.2899 9.49962 14.2899C8.46187 14.2899 7.42336 13.8707 6.63382 13.0321C5.05322 11.3549 5.05322 8.62664 6.63382 6.94946C7.399 6.13673 8.41695 5.68916 9.49962 5.68916C10.5823 5.68916 11.6002 6.13673 12.3662 6.94946C13.9468 8.62584 13.9468 11.3549 12.3662 13.0321Z" fill="#F6F6F6"/>
</svg>
