<svg width="17" height="33" viewBox="0 0 17 33" fill="none" xmlns="http://www.w3.org/2000/svg">
<path d="M15.9109 9.64725C14.7337 9.6559 13.5564 9.64725 12.3876 9.64725C12.2867 9.64725 12.1942 9.64725 12.0428 9.64725C12.3792 9.06807 12.6819 8.54076 12.9846 8.01344C14.246 5.83503 15.5073 3.66527 16.7686 1.48685C17.0125 1.06327 17.0545 0.700204 16.878 0.397647C16.7266 0.138312 16.4491 0 16.1632 0H4.65142C4.23938 0 3.86939 0.276624 3.76849 0.682915V0.691559C2.53238 5.83503 1.27945 10.9785 0.0433403 16.1133C-0.141655 16.8741 0.278789 17.41 1.05241 17.41C2.32215 17.41 3.5919 17.41 4.86164 17.41C4.97096 17.41 5.08868 17.41 5.24004 17.41C4.96255 18.188 4.69346 18.9142 4.42437 19.6489C2.99486 23.5822 1.56536 27.5154 0.144253 31.4487C0.0601643 31.6907 -0.00710893 31.976 0.0265267 32.2267C0.07698 32.633 0.362878 32.8923 0.758096 32.9787C1.21218 33.0738 1.53172 32.8404 1.8008 32.4687C6.77887 25.4062 11.7569 18.3436 16.7434 11.2897C16.9873 10.9439 17.0966 10.5722 16.8948 10.1746C16.6761 9.78557 16.3398 9.64725 15.9109 9.64725Z" fill="#0D0D0D"/>
</svg>
