<svg width="33" height="26" viewBox="0 0 33 26" fill="none" xmlns="http://www.w3.org/2000/svg">
<path d="M32.5694 23.3883C32.1573 23.0832 31.7366 22.7951 31.2987 22.5239C31.1184 22.4138 31.0669 22.2867 31.0669 22.0833C31.0755 19.7784 31.0755 17.4734 31.0669 15.1685C31.0497 10.4569 27.873 6.33857 23.271 5.07594C22.7558 4.93188 22.2235 4.84714 21.6912 4.74545C21.6912 3.51672 21.6912 2.27951 21.6912 1.05078C21.6912 0.389805 21.2962 0.00847402 20.6351 0C20.0427 0 19.4589 0 18.8664 0C18.2225 0.00847402 17.8361 0.398279 17.8275 1.03383V1.0423C17.8275 1.51685 17.4412 1.89818 16.9604 1.89818C12.968 1.89818 7.21546 1.90665 3.60083 1.88971C3.00841 1.88971 2.5877 2.05919 2.33871 2.59305V14.5329C2.59629 15.0838 3.03416 15.2448 3.63517 15.2363C7.24122 15.2193 12.9766 15.2278 16.9604 15.2278C17.4412 15.2278 17.8275 15.6091 17.8275 16.0837V16.0922C17.8275 16.7277 18.2225 17.1175 18.8664 17.126C19.4245 17.1345 19.9826 17.126 20.5321 17.126C21.322 17.126 21.6826 16.7701 21.6826 15.982C21.6826 15.4905 21.6826 14.999 21.6826 14.5075C22.7472 15.0753 23.2796 15.9651 23.2796 17.1768C23.2796 19.1937 23.2796 21.2189 23.2796 23.2358C23.2796 23.2866 23.2796 23.3459 23.2796 23.4052C23.2796 23.4646 23.2796 23.5324 23.2796 23.6171C23.2796 23.6256 23.2796 23.6256 23.2796 23.634C22.8159 23.651 22.3695 23.7103 21.9316 23.6679C21.1674 23.6001 20.5493 23.2103 19.9654 22.7443C18.6861 21.7274 17.2351 21.3291 15.6038 21.6172C14.668 21.7867 13.8437 22.2019 13.1139 22.7951C12.3927 23.3883 11.5856 23.7527 10.6155 23.7103C9.7397 23.6679 9.03566 23.2527 8.36597 22.7273C6.2882 21.1003 3.5579 21.1257 1.4973 22.7697C1.26548 22.9561 0.999322 23.1002 0.758919 23.2781C-0.0481492 23.8544 -0.0739046 24.5323 0.0634687 24.8543C0.501346 25.617 0.973565 25.7525 1.74629 25.3034C2.13265 25.0746 2.48467 24.8035 2.84528 24.5408C3.618 23.973 4.47658 23.7103 5.4382 23.8459C6.21092 23.9476 6.8291 24.3459 7.43011 24.8035C8.76091 25.8373 10.2548 26.2271 11.9205 25.8712C12.8048 25.6848 13.5776 25.2695 14.273 24.7018C14.8225 24.2526 15.4235 23.9391 16.1361 23.8459C17.2437 23.7018 18.1366 24.1255 18.9695 24.795C20.9013 26.3373 23.6745 26.3796 25.6235 24.8543C26.3189 24.312 27.0487 23.973 27.9159 23.9137C28.1906 23.8967 28.474 23.8544 28.7401 23.8967C29.3669 23.99 29.9078 24.2696 30.4144 24.6509C30.775 24.9221 31.1613 25.1933 31.5563 25.4136C32.0028 25.6593 32.5694 25.4814 32.8184 25.0746C32.9987 24.8458 33.2048 23.8459 32.5694 23.3883Z" fill="#0D0D0D"/>
</svg>
