<svg width="25" height="30" viewBox="0 0 25 30" fill="none" xmlns="http://www.w3.org/2000/svg">
<path d="M20.5579 0.00864806C20.2606 0.00864806 19.9633 0.00864806 19.666 0.00864806C14.8916 0.00864806 10.1084 0.00864806 5.33403 0.00864806C5.03673 0.00864806 4.73941 0.00864806 4.44211 0.00864806C2.96432 0.00864806 1.47779 0.00864806 0 0.00864806C0 10.0058 0 20.0029 0 30C1.76635 30 3.5327 30 5.31654 30C5.31654 29.9914 5.31654 29.9827 5.31654 29.9741C10.0997 29.9741 14.8741 29.9741 19.6747 29.9741C21.4411 29.9741 23.1987 29.9741 25 29.9741C25 19.9856 25 9.98847 25 0C23.5222 0.00864803 22.0444 0.00864806 20.5579 0.00864806ZM13.3701 26.4716C12.8017 26.4716 12.2333 26.4716 11.6387 26.4716C11.6387 24.595 11.6387 22.7097 11.6387 20.7985C12.2246 20.7985 12.7842 20.7985 13.3701 20.7985C13.3701 22.6838 13.3701 24.569 13.3701 26.4716ZM13.3788 17.8409C12.7929 17.8409 12.2246 17.8409 11.6387 17.8409C11.6387 15.947 11.6387 14.0703 11.6387 12.1678C12.2071 12.1678 12.7842 12.1678 13.3788 12.1678C13.3788 14.053 13.3788 15.9383 13.3788 17.8409ZM13.3788 9.19285C12.8017 9.19285 12.2246 9.19285 11.6387 9.19285C11.6387 7.31623 11.6387 5.43961 11.6387 3.52839C12.2246 3.52839 12.7929 3.52839 13.3788 3.52839C13.3788 5.42231 13.3788 7.29893 13.3788 9.19285Z" fill="#0D0D0D"/>
</svg>
